<svg viewBox="0 0 233 35" version="1.1" xmlns="http://www.w3.org/2000/svg" xmlns:xlink="http://www.w3.org/1999/xlink"><g stroke="none" stroke-width="1" fill="none" fill-rule="evenodd"><g transform="translate(0.000000, -9.000000)" fill="#40403A" fill-rule="nonzero"><g transform="translate(0.000000, 9.000000)"><g transform="translate(0.000000, 0.500000)"><g transform="translate(45.000000, 12.500000)"><path d="M11.6714194,5.85723077 C11.6687551,4.35537773 11.0595346,2.91827547 9.98199692,1.87210058 C8.90445918,0.825925691 7.44999369,0.259407699 5.94871795,0.301128205 C3.91283917,0.234627818 2.00249319,1.28279933 0.964871188,3.03567277 C-0.0727508174,4.7885462 -0.0727508174,6.96755636 0.964871188,8.7204298 C2.00249319,10.4733032 3.91283917,11.5214747 5.94871795,11.4549744 C7.4562791,11.4935694 8.91526947,10.9203097 9.99332728,9.86578536 C11.0713851,8.81126104 11.6767018,7.3652765 11.6714194,5.85723077 Z M2.82564103,5.85723077 C2.79185515,5.0036476 3.10457973,4.17265886 3.69273889,3.55313121 C4.28089806,2.93360356 5.09453182,2.57816151 5.94871795,2.56758974 C6.80130404,2.58304105 7.61202783,2.93998864 8.1991367,3.55840998 C8.78624557,4.17683133 9.10062472,5.00499217 9.07179487,5.85723077 C9.10552966,6.7125001 8.79333932,7.54530593 8.20570037,8.16764356 C7.61806142,8.78998119 6.80451497,9.14938423 5.94871795,9.16471795 C5.09184217,9.15265741 4.2763379,8.79425995 3.68799437,8.17117613 C3.09965084,7.54809232 2.78857661,6.7133895 2.82564103,5.85723077 Z"></path><path d="M16.5374359,0.550974359 L16.5374359,7.56451282 C16.5374359,9.944 18.6075897,11.4371282 21.1476923,11.4371282 C23.6877949,11.4371282 25.7698462,9.93210256 25.7698462,7.56451282 L25.7698462,0.550974359 L23.2475897,0.550974359 L23.2475897,7.3265641 C23.2475897,8.41517949 22.4147692,9.16471795 21.1774359,9.16471795 C19.9401026,9.16471795 19.1251282,8.41517949 19.1251282,7.3265641 L19.1251282,0.550974359 L16.5374359,0.550974359 Z"></path><polygon points="35.96 11.2051282 35.96 2.62112821 39.166359 2.62112821 39.166359 0.550974359 30.1659487 0.550974359 30.1659487 2.60328205 33.3901538 2.60328205 33.3901538 11.2051282"></polygon><path d="M52.854359,5.87507692 C52.854359,2.55569231 50.2190769,0.550974359 47.1495385,0.550974359 L43.5803077,0.550974359 L43.5803077,11.2051282 L47.1495385,11.2051282 C50.2190769,11.2051282 52.854359,9.20041026 52.854359,5.87507692 Z M46.0430769,8.98030769 L46.0430769,2.76984615 L46.8461538,2.76984615 C48.7021538,2.76984615 50.2666667,3.80492308 50.2666667,5.87507692 C50.2666667,7.94523077 48.7021538,8.98030769 46.8461538,8.98030769 L46.0430769,8.98030769 Z"></path><path d="M68.767221,5.85723077 C68.767221,2.4545641 65.9772308,0.301128205 63.0207179,0.301128205 C59.9592916,0.392577159 57.5438083,2.93461286 57.6086769,5.99671774 C57.6735456,9.05882263 60.1945162,11.4962828 63.2570688,11.4579994 C66.3196215,11.4197159 68.7788749,8.92000035 68.767221,5.85723077 L68.767221,5.85723077 Z M59.9154872,5.85723077 C59.8654297,4.71218207 60.447793,3.63202617 61.4319309,3.04456131 C62.4160687,2.45709646 63.6432133,2.45709646 64.6273512,3.04456131 C65.611489,3.63202617 66.1938524,4.71218207 66.1437949,5.85723077 C66.1938524,7.00227947 65.611489,8.08243537 64.6273512,8.66990022 C63.6432133,9.25736508 62.4160687,9.25736508 61.4319309,8.66990022 C60.447793,8.08243537 59.8654297,7.00227947 59.9154872,5.85723077 L59.9154872,5.85723077 Z"></path><path d="M78.9394872,11.4549744 C80.975366,11.5214747 82.8857119,10.4733032 83.9233339,8.7204298 C84.9609559,6.96755636 84.9609559,4.7885462 83.9233339,3.03567277 C82.8857119,1.28279933 80.975366,0.234627818 78.9394872,0.301128205 C78.4808275,0.303609702 78.0238905,0.357484371 77.5772308,0.46174359 C75.0281017,1.01253476 73.2086351,3.26712183 73.2086351,5.87507692 C73.2086351,8.48303202 75.0281017,10.7376191 77.5772308,11.2884103 C78.0231443,11.397538 78.480417,11.4534491 78.9394872,11.4549744 L78.9394872,11.4549744 Z M75.8342564,5.85723077 C75.7889729,4.61158529 76.4683769,3.4521928 77.5772308,2.88287179 C77.9978952,2.66241454 78.4645983,2.54421026 78.9394872,2.53784615 C79.8026313,2.54511386 80.6258023,2.90266829 81.2202545,3.52852551 C81.8147067,4.15438272 82.1294467,4.99485536 82.0923077,5.85723077 C82.1260425,6.7125001 81.8138521,7.54530593 81.2262132,8.16764356 C80.6385742,8.78998119 79.8250278,9.14938423 78.9692308,9.16471795 C78.4947958,9.16041564 78.0280683,9.04424329 77.6069744,8.82564103 C76.4927165,8.26120395 75.802774,7.10589752 75.8342564,5.85723077 L75.8342564,5.85723077 Z"></path><path d="M97.0295385,3.77517949 C97.0295385,1.77046154 95.4114872,0.550974359 93.5911795,0.550974359 L89.6174359,0.550974359 L89.6174359,11.2051282 L92.104,11.2051282 L92.104,7.04102564 L93.0260513,7.04102564 L95.8992821,11.2348718 L98.7844103,11.2348718 L95.393641,6.47589744 C96.4173478,5.96995768 97.0552762,4.916796 97.0295385,3.77517949 L97.0295385,3.77517949 Z M93.2104615,4.96492308 L92.104,4.96492308 L92.104,2.5854359 L93.2104615,2.5854359 C93.8675388,2.5854359 94.4002051,3.11810225 94.4002051,3.77517949 C94.4002051,4.43225673 93.8675388,4.96492308 93.2104615,4.96492308 Z"></path><path d="M119.087385,5.87507692 C119.087385,2.55569231 116.452103,0.550974359 113.376615,0.550974359 L109.807385,0.550974359 L109.807385,11.2051282 L113.376615,11.2051282 C116.452103,11.2051282 119.087385,9.20041026 119.087385,5.87507692 Z M113.079179,8.98030769 L112.276103,8.98030769 L112.276103,2.76984615 L113.079179,2.76984615 C114.929231,2.76984615 116.499692,3.80492308 116.499692,5.87507692 C116.499692,7.94523077 114.929231,8.98030769 113.079179,8.98030769 L113.079179,8.98030769 Z"></path><path d="M131.430974,3.77517949 C131.430974,1.77046154 129.812923,0.550974359 127.992615,0.550974359 L124.018872,0.550974359 L124.018872,11.2051282 L126.505436,11.2051282 L126.505436,7.04102564 L127.421538,7.04102564 L130.276923,11.2051282 L133.168,11.2051282 L129.777231,6.44615385 C130.792043,5.94329577 131.433208,4.90774547 131.430974,3.77517949 Z M127.605949,4.96492308 L126.505436,4.96492308 L126.505436,2.5854359 L127.605949,2.5854359 C128.263026,2.5854359 128.795692,3.11810225 128.795692,3.77517949 C128.795692,4.43225673 128.263026,4.96492308 127.605949,4.96492308 Z"></path><polygon points="143.536615 2.66871795 143.536615 0.550974359 137.326154 0.550974359 137.326154 11.2051282 144.006564 11.2051282 144.006564 9.0814359 139.913846 9.0814359 139.913846 6.94584615 142.870359 6.94584615 142.870359 4.79241026 139.913846 4.79241026 139.913846 2.66871795"></polygon><path d="M154.868923,8.98030769 L155.707692,11.2051282 L158.277538,11.2051282 L154.071795,0.467692308 L152.287179,0.467692308 L148.123077,11.2051282 L150.562051,11.2051282 L151.382974,8.98030769 L154.868923,8.98030769 Z M152.769026,4.89353846 C152.905235,4.53885037 153.016548,4.17509647 153.102154,3.80492308 L153.131897,3.80492308 C153.233026,4.19158974 153.352,4.59015385 153.465026,4.89353846 L154.238359,7.02912821 L151.995692,7.02912821 L152.769026,4.89353846 Z"></path><path d="M165.076923,11.2051282 L165.416,7.27897436 C165.46359,6.68410256 165.511179,6.02379487 165.511179,5.32779487 L165.546872,5.32779487 C165.813559,6.0092172 166.115365,6.6763675 166.451077,7.3265641 L168.467692,11.2348718 L169.502769,11.2348718 L171.507487,7.3265641 C171.845643,6.67144955 172.147501,5.99822712 172.411692,5.30994872 L172.441436,5.30994872 C172.441436,5.99405128 172.494974,6.66030769 172.542564,7.27897436 L172.893538,11.2051282 L175.433641,11.2051282 L174.481846,0.550974359 L172.358154,0.550974359 L170.056,5.02441026 C169.679173,5.76441066 169.33967,6.52283207 169.038769,7.29682051 L169.003077,7.29682051 C168.717538,6.59487179 168.253538,5.64307692 167.932308,5.02441026 L165.612308,0.550974359 L163.51241,0.550974359 L163.328,2.65682051 L162.590359,11.2051282 L165.076923,11.2051282 L165.076923,11.2051282 Z"></path><path d="M183.428718,9.27179487 C182.210811,9.27063378 181.030372,8.85054884 180.085538,8.08205128 L180.323487,10.5686154 C181.275682,11.1982841 182.400943,11.5144386 183.541744,11.4728205 C186.165128,11.4728205 187.515487,10.0986667 187.515487,8.01661538 C187.515487,6.34502564 186.266256,5.16123077 184.541128,4.59015385 C183.268103,4.17374359 182.905231,3.85846154 182.905231,3.35876923 C182.905231,2.85907692 183.333538,2.43671795 184.25559,2.43671795 C185.036139,2.45490688 185.797014,2.68522587 186.456615,3.10297436 L186.658872,0.937641026 C185.870242,0.477830868 184.965139,0.256721137 184.053333,0.301128205 C181.715487,0.301128205 180.365128,1.73476923 180.365128,3.53723077 C180.365128,5.0065641 181.346667,6.19630769 183.202667,6.84471795 C184.523282,7.31466667 184.892103,7.62994872 184.892103,8.26646154 C184.892103,8.90297436 184.410256,9.27179487 183.428718,9.27179487 Z"></path></g><g><path d="M17.000993,-7.72607967e-07 C7.61270258,0.00233253732 0.00366247432,7.61452435 0.00521732897,17.0028149 C0.00677266028,26.3911055 7.61833415,34.0007761 17.0066248,33.9999992 C26.3949154,33.9992213 34.0052173,26.3882902 34.0052173,16.9999992 C34.0052173,12.4905873 32.2135709,8.16593055 29.0245389,4.9776907 C25.8355068,1.78945086 21.5104051,-0.0011207371 17.000993,-7.72607967e-07 Z M7.2855005,15.6292703 C7.2855005,10.771524 10.7260521,7.814635 14.3968186,7.814635 C17.2945698,7.814635 19.6769775,9.10721792 20.8090436,11.7050561 C20.8386125,11.7726422 20.8681814,11.8402282 20.8956382,11.9162625 C20.923095,11.9922968 20.9505519,12.0514345 20.9758966,12.1274688 C21.0802172,12.4130387 21.1683596,12.7042613 21.2399046,12.9997511 C21.2589132,13.0736733 21.2758097,13.1497076 21.2927062,13.227854 C21.3096027,13.3060003 21.3243871,13.3778105 21.3391716,13.4538448 C21.4680873,14.139747 21.5317336,14.8363198 21.5293269,15.5342274 C21.5293269,17.7603424 20.2979242,20.9432222 17.1784063,22.1492105 L17.1784063,21.3043851 C19.0792635,19.8977508 19.2418924,17.0042236 19.2418924,15.2406506 C19.2424169,14.5009128 19.1645396,13.7632026 19.0095654,13.0398803 C18.994781,12.9744063 18.9821086,12.9089324 18.9652121,12.8434584 C18.9483156,12.7779844 18.9335312,12.7125104 18.9166346,12.6470365 C18.8638331,12.4358301 18.8046953,12.2415203 18.7392213,12.0408742 L18.6695232,11.8444523 C18.6462905,11.7789783 18.6230578,11.7135044 18.597713,11.6501425 C17.8922838,9.83799191 16.5680199,8.35109915 14.4010427,8.35109915 C9.92346791,8.35109915 9.57708948,13.6038013 9.57708948,15.2533229 C9.57708948,18.0306865 10.8654483,22.1154175 14.4010427,22.1154175 L14.5298786,22.1154175 C14.5298786,22.2780464 14.5298786,22.4554597 14.5298786,22.6370972 L14.4052668,22.6370972 C9.22859899,22.6370972 7.28761256,18.3305996 7.28761256,15.6292703 L7.2855005,15.6292703 Z M25.0500673,24.3098516 C23.5799389,25.6699518 21.6501927,26.4243483 19.6474086,26.421921 C19.1489616,26.421921 18.4181876,26.3817859 16.1308228,26.3817859 C13.3048817,26.3817859 13.2288474,26.421921 13.0936753,26.421921 C12.9585033,26.421921 12.9394947,26.3416567 12.9394947,26.1600193 C12.9394947,25.9488129 12.9394947,25.817865 13.4780709,25.817865 C14.3820341,25.817865 14.8234554,25.4757107 14.842464,24.9329103 C14.8656967,24.3457567 14.8825932,23.6656722 14.8910415,23.0088204 C14.8910415,22.9433464 14.8910415,22.8799845 14.8910415,22.8145106 C14.8910415,22.7490366 14.8910415,22.6814506 14.8910415,22.6180886 C14.8910415,22.4322271 14.8910415,22.2548137 14.8910415,22.0879607 C14.8910415,22.0203747 14.8910415,21.9549007 14.8910415,21.8915388 L14.8910415,16.8225862 C14.8910415,15.3948312 14.8720329,14.921729 14.8509122,13.9860848 C14.8319037,12.7991051 14.5066459,12.6385882 13.1211322,12.6385882 C12.9099258,12.6385882 12.9099258,12.4780714 12.9099258,12.2964339 C12.9099258,12.1760463 12.947943,12.034538 13.083115,12.034538 C13.2182871,12.034538 14.91005,12.1147965 16.1202625,12.1147965 C16.9904327,12.1147965 17.7592238,12.0535466 18.3252568,12.0387622 C18.3928429,12.2372961 18.4540927,12.4379422 18.5090064,12.6385882 C16.7940107,12.6491485 16.7940107,12.8075533 16.7940107,14.1466016 L16.7940107,24.8801087 C16.7940107,25.5834259 17.3706041,25.8242012 18.5998251,25.8242012 C22.0593853,25.8242012 24.9233435,23.3298541 24.8283006,19.0444771 C24.7501543,15.8447007 23.3287355,14.1867308 22.3107208,13.5298791 C22.1009361,13.3904686 21.8797981,13.2689487 21.6496449,13.1666041 C21.5781177,12.8307192 21.4871458,12.4992713 21.3771887,12.1739342 C22.5255217,12.2958381 23.6223959,12.7143535 24.5600685,13.3883708 C26.3658829,14.6556089 27.1156655,17.050689 27.1156655,18.9029688 C27.1283378,21.1206356 26.3785553,23.0088204 25.0521793,24.3161878 L25.0500673,24.3098516 Z"></path></g></g></g></g></g></svg>