<svg xmlns="http://www.w3.org/2000/svg" xmlns:xlink="http://www.w3.org/1999/xlink" width="20px" height="16px" viewBox="0 0 20 16" version="1.1">
    <!-- Generator: Sketch 59.1 (86144) - https://sketch.com -->
    <title>“</title>
    <desc>Created with Sketch.</desc>
    <g id="styleguide" stroke="none" stroke-width="1" fill="none" fill-rule="evenodd">
        <g id="Atoms-&amp;-Molecules" transform="translate(-890.000000, -13951.000000)" fill="#5A90F1" fill-rule="nonzero">
            <g id="testimonial" transform="translate(670.000000, 13951.000000)">
                <g id="quote">
                    <path d="M239.142857,16 L239.142857,9.14285714 L236.208494,9.14285714 L236.208494,8.43243243 C236.208494,6.76447876 236.388674,5.42084942 236.749035,4.4015444 C237.109395,3.38223938 237.649936,2.67696268 238.370656,2.28571429 L238.370656,2.28571429 L238.370656,0 C236.332046,0.514800515 234.808237,1.67824968 233.799228,3.49034749 C232.790219,5.3024453 232.285714,7.76319176 232.285714,10.8725869 L232.285714,10.8725869 L232.285714,16 L239.142857,16 Z M227.714286,16 L227.714286,9.14285714 L224.779923,9.14285714 L224.779923,8.43243243 C224.779923,6.76447876 224.960103,5.42084942 225.320463,4.4015444 C225.680824,3.38223938 226.221364,2.67696268 226.942085,2.28571429 L226.942085,2.28571429 L226.942085,0 C224.903475,0.514800515 223.379665,1.67824968 222.370656,3.49034749 C221.361647,5.3024453 220.857143,7.76319176 220.857143,10.8725869 L220.857143,10.8725869 L220.857143,16 L227.714286,16 Z" id="“"/>
                </g>
            </g>
        </g>
    </g>
</svg>